<?xml version="1.0" encoding="UTF-8" standalone="no"?>
<svg width="44px" height="60px" viewBox="0 0 44 60" version="1.1" xmlns="http://www.w3.org/2000/svg" xmlns:xlink="http://www.w3.org/1999/xlink" xmlns:sketch="http://www.bohemiancoding.com/sketch/ns">
    <!-- Generator: Sketch 3.4 (15575) - http://www.bohemiancoding.com/sketch -->
    <title>golf</title>
    <desc>Created with Sketch.</desc>
    <defs></defs>
    <g id="Sports" stroke="none" stroke-width="1" fill="none" fill-rule="evenodd" sketch:type="MSPage">
        <g id="Icon-19" sketch:type="MSArtboardGroup" transform="translate(-8.000000, 0.000000)" fill="#272727">
            <path d="M52,22 C52,34.131 42.131,44 30,44 C29.447,44 29,43.552 29,43 C29,42.448 29.447,42 30,42 C41.028,42 50,33.028 50,22 C50,10.972 41.028,2 30,2 C18.972,2 10,10.972 10,22 C10,31.543 16.786,39.797 26.136,41.627 C26.678,41.733 27.031,42.258 26.925,42.8 C26.818,43.342 26.299,43.695 25.751,43.59 C15.466,41.577 8,32.497 8,22 C8,9.869 17.869,0 30,0 C42.131,0 52,9.869 52,22 L52,22 Z M37.778,25.536 C38.948,24.367 40.852,24.365 42.021,25.535 C43.191,26.706 43.191,28.609 42.021,29.779 C41.826,29.974 41.57,30.072 41.314,30.072 C41.059,30.072 40.803,29.974 40.607,29.779 C40.217,29.388 40.217,28.755 40.607,28.365 C40.997,27.975 40.997,27.34 40.607,26.95 C40.216,26.56 39.582,26.56 39.192,26.95 C38.802,27.341 38.169,27.341 37.778,26.95 C37.388,26.56 37.388,25.927 37.778,25.536 L37.778,25.536 Z M25.758,13.515 C26.147,13.125 26.147,12.491 25.758,12.101 C25.367,11.712 24.734,11.711 24.344,12.101 C23.953,12.492 23.32,12.492 22.93,12.101 C22.539,11.71 22.539,11.078 22.93,10.687 C24.101,9.517 26.003,9.518 27.172,10.686 C28.342,11.856 28.342,13.759 27.172,14.929 C26.977,15.125 26.721,15.222 26.465,15.222 C26.209,15.222 25.953,15.125 25.758,14.929 C25.367,14.539 25.367,13.906 25.758,13.515 L25.758,13.515 Z M34.95,18.465 C35.34,18.075 35.34,17.44 34.95,17.051 C34.561,16.661 33.927,16.66 33.535,17.051 C33.145,17.44 32.512,17.441 32.121,17.05 C31.73,16.66 31.73,16.026 32.121,15.636 C33.292,14.466 35.195,14.468 36.364,15.637 C37.533,16.806 37.533,18.709 36.364,19.879 C36.169,20.074 35.913,20.172 35.657,20.172 C35.401,20.172 35.146,20.074 34.95,19.879 C34.56,19.489 34.56,18.855 34.95,18.465 L34.95,18.465 Z M42.021,9.98 C43.19,11.15 43.19,13.053 42.021,14.222 C41.826,14.417 41.57,14.515 41.314,14.515 C41.059,14.515 40.803,14.417 40.607,14.222 C40.217,13.832 40.217,13.199 40.607,12.808 C40.997,12.418 40.997,11.784 40.607,11.394 C40.218,11.004 39.584,11.004 39.192,11.394 C38.802,11.784 38.169,11.784 37.778,11.394 C37.388,11.003 37.388,10.37 37.778,9.979 C38.948,8.81 40.852,8.809 42.021,9.98 L42.021,9.98 Z M44.143,20.585 C44.332,20.397 44.436,20.146 44.436,19.879 C44.436,19.612 44.332,19.361 44.143,19.172 C43.754,18.782 43.119,18.782 42.729,19.172 C42.338,19.562 41.705,19.562 41.314,19.172 C40.924,18.781 40.924,18.148 41.314,17.757 C42.485,16.588 44.388,16.588 45.557,17.758 C46.123,18.324 46.436,19.078 46.436,19.879 C46.436,20.68 46.123,21.434 45.557,22 C45.361,22.195 45.105,22.293 44.85,22.293 C44.594,22.293 44.338,22.195 44.143,22 C43.752,21.609 43.752,20.976 44.143,20.585 L44.143,20.585 Z M34.242,6.444 C35.412,7.613 35.412,9.517 34.243,10.687 C34.048,10.882 33.792,10.979 33.536,10.979 C33.28,10.979 33.024,10.882 32.829,10.687 C32.438,10.296 32.438,9.663 32.829,9.272 C33.219,8.883 33.218,8.248 32.828,7.858 C32.453,7.481 31.793,7.48 31.414,7.858 C31.023,8.248 30.391,8.249 30,7.858 C29.609,7.467 29.609,6.834 30,6.443 C31.134,5.311 33.11,5.312 34.242,6.444 L34.242,6.444 Z M30,52.917 L29.181,48 L30.819,48 L30,52.917 Z M39,44 C38.447,44 38,44.448 38,45 C38,45.551 37.552,46 37,46 L23,46 C22.448,46 22,45.551 22,45 C22,44.448 21.553,44 21,44 C20.447,44 20,44.448 20,45 C20,46.654 21.346,48 23,48 L27.153,48 L29.014,59.165 C29.094,59.646 29.511,60 30,60 C30.489,60 30.906,59.646 30.986,59.165 L32.847,48 L37,48 C38.654,48 40,46.654 40,45 C40,44.448 39.553,44 39,44 L39,44 Z" id="golf" sketch:type="MSShapeGroup"></path>
        </g>
    </g>
</svg>