<?xml version="1.0" encoding="UTF-8" standalone="no"?>
<svg width="60px" height="60px" viewBox="0 0 60 60" version="1.1" xmlns="http://www.w3.org/2000/svg" xmlns:xlink="http://www.w3.org/1999/xlink" xmlns:sketch="http://www.bohemiancoding.com/sketch/ns">
    <!-- Generator: Sketch 3.4 (15575) - http://www.bohemiancoding.com/sketch -->
    <title>keyboard</title>
    <desc>Created with Sketch.</desc>
    <defs></defs>
    <g id="Computing" stroke="none" stroke-width="1" fill="none" fill-rule="evenodd" sketch:type="MSPage">
        <g id="Icon-17" sketch:type="MSArtboardGroup" fill="#000000">
            <path d="M60,31 L60,55 C60,57.757 57.757,60 55,60 L5,60 C2.243,60 0,57.757 0,55 L0,31 C0,28.243 2.243,26 5,26 L35,26 C35.552,26 36,26.448 36,27 C36,27.552 35.552,28 35,28 L5,28 C3.346,28 2,29.346 2,31 L2,55 C2,56.654 3.346,58 5,58 L55,58 C56.654,58 58,56.654 58,55 L58,31 C58,29.346 56.654,28 55,28 L39,28 C38.448,28 38,27.552 38,27 L38,15 C38,13.346 36.654,12 35,12 C33.346,12 32,13.346 32,15 C32,17.757 29.757,20 27,20 C24.243,20 22,17.757 22,15 L22,1 C22,0.448 22.448,0 23,0 C23.552,0 24,0.448 24,1 L24,15 C24,16.654 25.346,18 27,18 C28.654,18 30,16.654 30,15 C30,12.243 32.243,10 35,10 C37.757,10 40,12.243 40,15 L40,26 L55,26 C57.757,26 60,28.243 60,31 L60,31 Z M12,33 C12,32.448 11.552,32 11,32 C10.448,32 10,32.448 10,33 L10,34 L8,34 L8,33 C8,32.448 7.552,32 7,32 C6.448,32 6,32.448 6,33 L6,35 C6,35.552 6.448,36 7,36 L11,36 C11.552,36 12,35.552 12,35 L12,33 L12,33 Z M12,39 C12,38.448 11.552,38 11,38 C10.448,38 10,38.448 10,39 L10,40 L8,40 L8,39 C8,38.448 7.552,38 7,38 C6.448,38 6,38.448 6,39 L6,41 C6,41.552 6.448,42 7,42 L11,42 C11.552,42 12,41.552 12,41 L12,39 L12,39 Z M12,45 C12,44.448 11.552,44 11,44 C10.448,44 10,44.448 10,45 L10,46 L8,46 L8,45 C8,44.448 7.552,44 7,44 C6.448,44 6,44.448 6,45 L6,47 C6,47.552 6.448,48 7,48 L11,48 C11.552,48 12,47.552 12,47 L12,45 L12,45 Z M7,50 C6.448,50 6,50.448 6,51 L6,53 C6,53.552 6.448,54 7,54 L11,54 C11.552,54 12,53.552 12,53 L12,51 C12,50.448 11.552,50 11,50 C10.448,50 10,50.448 10,51 L10,52 L8,52 L8,51 C8,50.448 7.552,50 7,50 L7,50 Z M15,32 C14.448,32 14,32.448 14,33 L14,35 C14,35.552 14.448,36 15,36 L19,36 C19.552,36 20,35.552 20,35 L20,33 C20,32.448 19.552,32 19,32 C18.448,32 18,32.448 18,33 L18,34 L16,34 L16,33 C16,32.448 15.552,32 15,32 L15,32 Z M14,41 C14,41.552 14.448,42 15,42 L19,42 C19.552,42 20,41.552 20,41 L20,39 C20,38.448 19.552,38 19,38 C18.448,38 18,38.448 18,39 L18,40 L16,40 L16,39 C16,38.448 15.552,38 15,38 C14.448,38 14,38.448 14,39 L14,41 L14,41 Z M14,47 C14,47.552 14.448,48 15,48 L19,48 C19.552,48 20,47.552 20,47 L20,45 C20,44.448 19.552,44 19,44 C18.448,44 18,44.448 18,45 L18,46 L16,46 L16,45 C16,44.448 15.552,44 15,44 C14.448,44 14,44.448 14,45 L14,47 L14,47 Z M14,53 C14,53.552 14.448,54 15,54 L37,54 C37.552,54 38,53.552 38,53 L38,51 C38,50.448 37.552,50 37,50 C36.448,50 36,50.448 36,51 L36,52 L16,52 L16,51 C16,50.448 15.552,50 15,50 C14.448,50 14,50.448 14,51 L14,53 L14,53 Z M23,32 C22.448,32 22,32.448 22,33 L22,35 C22,35.552 22.448,36 23,36 L27,36 C27.552,36 28,35.552 28,35 L28,33 C28,32.448 27.552,32 27,32 C26.448,32 26,32.448 26,33 L26,34 L24,34 L24,33 C24,32.448 23.552,32 23,32 L23,32 Z M22,41 C22,41.552 22.448,42 23,42 L27,42 C27.552,42 28,41.552 28,41 L28,39 C28,38.448 27.552,38 27,38 C26.448,38 26,38.448 26,39 L26,40 L24,40 L24,39 C24,38.448 23.552,38 23,38 C22.448,38 22,38.448 22,39 L22,41 L22,41 Z M22,47 C22,47.552 22.448,48 23,48 L27,48 C27.552,48 28,47.552 28,47 L28,45 C28,44.448 27.552,44 27,44 C26.448,44 26,44.448 26,45 L26,46 L24,46 L24,45 C24,44.448 23.552,44 23,44 C22.448,44 22,44.448 22,45 L22,47 L22,47 Z M31,32 C30.448,32 30,32.448 30,33 L30,35 C30,35.552 30.448,36 31,36 L35,36 C35.552,36 36,35.552 36,35 L36,33 C36,32.448 35.552,32 35,32 C34.448,32 34,32.448 34,33 L34,34 L32,34 L32,33 C32,32.448 31.552,32 31,32 L31,32 Z M30,41 C30,41.552 30.448,42 31,42 L35,42 C35.552,42 36,41.552 36,41 L36,39 C36,38.448 35.552,38 35,38 C34.448,38 34,38.448 34,39 L34,40 L32,40 L32,39 C32,38.448 31.552,38 31,38 C30.448,38 30,38.448 30,39 L30,41 L30,41 Z M30,47 C30,47.552 30.448,48 31,48 L35,48 C35.552,48 36,47.552 36,47 L36,45 C36,44.448 35.552,44 35,44 C34.448,44 34,44.448 34,45 L34,46 L32,46 L32,45 C32,44.448 31.552,44 31,44 C30.448,44 30,44.448 30,45 L30,47 L30,47 Z M39,32 C38.448,32 38,32.448 38,33 L38,35 C38,35.552 38.448,36 39,36 L43,36 C43.552,36 44,35.552 44,35 L44,33 C44,32.448 43.552,32 43,32 C42.448,32 42,32.448 42,33 L42,34 L40,34 L40,33 C40,32.448 39.552,32 39,32 L39,32 Z M38,41 C38,41.552 38.448,42 39,42 L43,42 C43.552,42 44,41.552 44,41 L44,39 C44,38.448 43.552,38 43,38 C42.448,38 42,38.448 42,39 L42,40 L40,40 L40,39 C40,38.448 39.552,38 39,38 C38.448,38 38,38.448 38,39 L38,41 L38,41 Z M38,47 C38,47.552 38.448,48 39,48 L43,48 C43.552,48 44,47.552 44,47 L44,45 C44,44.448 43.552,44 43,44 C42.448,44 42,44.448 42,45 L42,46 L40,46 L40,45 C40,44.448 39.552,44 39,44 C38.448,44 38,44.448 38,45 L38,47 L38,47 Z M41,50 C40.448,50 40,50.448 40,51 L40,53 C40,53.552 40.448,54 41,54 L45,54 C45.552,54 46,53.552 46,53 L46,51 C46,50.448 45.552,50 45,50 C44.448,50 44,50.448 44,51 L44,52 L42,52 L42,51 C42,50.448 41.552,50 41,50 L41,50 Z M47,32 C46.448,32 46,32.448 46,33 L46,35 C46,35.552 46.448,36 47,36 L53,36 C53.552,36 54,35.552 54,35 L54,33 C54,32.448 53.552,32 53,32 C52.448,32 52,32.448 52,33 L52,34 L48,34 L48,33 C48,32.448 47.552,32 47,32 L47,32 Z M46,41 C46,41.552 46.448,42 47,42 L53,42 C53.552,42 54,41.552 54,41 L54,39 C54,38.448 53.552,38 53,38 C52.448,38 52,38.448 52,39 L52,40 L48,40 L48,39 C48,38.448 47.552,38 47,38 C46.448,38 46,38.448 46,39 L46,41 L46,41 Z M46,47 C46,47.552 46.448,48 47,48 L53,48 C53.552,48 54,47.552 54,47 L54,45 C54,44.448 53.552,44 53,44 C52.448,44 52,44.448 52,45 L52,46 L48,46 L48,45 C48,44.448 47.552,44 47,44 C46.448,44 46,44.448 46,45 L46,47 L46,47 Z M49,50 C48.448,50 48,50.448 48,51 L48,53 C48,53.552 48.448,54 49,54 L53,54 C53.552,54 54,53.552 54,53 L54,51 C54,50.448 53.552,50 53,50 C52.448,50 52,50.448 52,51 L52,52 L50,52 L50,51 C50,50.448 49.552,50 49,50 L49,50 Z" id="keyboard" sketch:type="MSShapeGroup"></path>
        </g>
    </g>
</svg>