<?xml version="1.0" encoding="UTF-8" standalone="no"?>
<svg width="60px" height="48px" viewBox="0 0 60 48" version="1.1" xmlns="http://www.w3.org/2000/svg" xmlns:xlink="http://www.w3.org/1999/xlink" xmlns:sketch="http://www.bohemiancoding.com/sketch/ns">
    <!-- Generator: Sketch 3.4 (15575) - http://www.bohemiancoding.com/sketch -->
    <title>mountain</title>
    <desc>Created with Sketch.</desc>
    <defs></defs>
    <g id="Nature" stroke="none" stroke-width="1" fill="none" fill-rule="evenodd" sketch:type="MSPage">
        <g id="Icon-1" sketch:type="MSArtboardGroup" transform="translate(0.000000, -12.000000)" fill="#000000">
            <path d="M0.121401751,54.524 L13.1214018,30.524 C13.1414018,30.476 14.3134018,28 17.0004018,28 C18.0954018,28 18.9764018,28.702 19.5024018,29.122 L19.6184018,29.214 L22.9064018,31.68 L28.2934018,26.293 C28.6844018,25.902 29.3164018,25.902 29.7074018,26.293 L33.0004018,29.586 L35.2934018,27.293 C35.6844018,26.902 36.3164018,26.902 36.7074018,27.293 C37.0984018,27.684 37.0984018,28.316 36.7074018,28.707 L33.7074018,31.707 C33.3164018,32.098 32.6844018,32.098 32.2934018,31.707 L29.0004018,28.414 L23.7074018,33.707 C23.3554018,34.059 22.7984018,34.1 22.4004018,33.8 L19.2594018,31.44 L10.8744018,46.487 C10.6904018,46.815 10.3504018,47 9.99940175,47 C9.83440175,47 9.66740175,46.959 9.51340175,46.874 C9.03140175,46.605 8.85740175,45.996 9.12640175,45.513 L17.6414018,30.235 C17.4214018,30.1 17.1984018,30 17.0004018,30 C15.6054018,30 14.9334018,31.367 14.9054018,31.425 L1.87940175,55.476 C1.69840175,55.811 1.35440175,56 0.999401751,56 C0.838401751,56 0.675401751,55.961 0.524401751,55.879 C0.0384017509,55.616 -0.142598249,55.009 0.121401751,54.524 L0.121401751,54.524 Z M20.3064018,27.396 C20.7924018,27.659 21.3984018,27.477 21.6614018,26.991 L27.9054018,15.425 C27.9334018,15.367 28.6054018,14 30.0004018,14 C31.3954018,14 32.0674018,15.367 32.1224018,15.479 L49.0324018,46.482 C49.2144018,46.815 49.5574018,47.003 49.9114018,47.003 C50.0734018,47.003 50.2374018,46.964 50.3894018,46.881 C50.8744018,46.616 51.0534018,46.009 50.7884018,45.524 L46.2234018,37.156 C46.4694018,37.054 46.7294018,37 47.0004018,37 C48.3954018,37 49.0674018,38.367 49.1164018,38.467 L58.1164018,55.468 C58.2964018,55.807 58.6424018,56 59.0014018,56 C59.1594018,56 59.3194018,55.963 59.4684018,55.884 C59.9564018,55.625 60.1424018,55.02 59.8844018,54.532 L50.9084018,37.581 C50.8594018,37.476 49.6874018,35 47.0004018,35 C46.3914018,35 45.8114018,35.149 45.2694018,35.407 L33.9084018,14.581 C33.8594018,14.476 32.6874018,12 30.0004018,12 C27.3124018,12 26.1414018,14.476 26.1204018,14.525 L19.9014018,26.041 C19.6394018,26.526 19.8204018,27.133 20.3064018,27.396 L20.3064018,27.396 Z M13.0004018,58 L1.00040175,58 C0.448401751,58 0.000401750942,58.448 0.000401750942,59 C0.000401750942,59.552 0.448401751,60 1.00040175,60 L13.0004018,60 C13.5524018,60 14.0004018,59.552 14.0004018,59 C14.0004018,58.448 13.5524018,58 13.0004018,58 L13.0004018,58 Z M54.0004018,59 C54.0004018,59.552 53.5524018,60 53.0004018,60 L17.0004018,60 C16.4484018,60 16.0004018,59.552 16.0004018,59 L16.0004018,56 L14.0004018,56 C13.6724018,56 13.3654018,55.839 13.1784018,55.57 C12.9914018,55.3 12.9494018,54.956 13.0644018,54.649 L16.0634018,46.649 C16.2104018,46.259 16.5834018,46 17.0004018,46 C17.4174018,46 17.7904018,46.259 17.9374018,46.649 L20.8714018,54.475 C20.9654018,54.627 21.0204018,54.807 21.0204018,55 C21.0204018,55.552 20.5724018,56 20.0204018,56 L20.0004018,56 L18.0004018,56 L18.0004018,58 L34.0004018,58 L34.0004018,56 L32.0004018,56 C31.6724018,56 31.3654018,55.839 31.1784018,55.57 C30.9914018,55.3 30.9494018,54.956 31.0634018,54.649 L34.0634018,46.649 C34.2094018,46.261 34.5794018,46.002 34.9944018,46 L35.0004018,46 C35.4124018,46 35.7824018,46.253 35.9324018,46.638 L37.0994018,49.638 C37.2994018,50.152 37.0444018,50.732 36.5294018,50.932 C36.0154018,51.131 35.4364018,50.877 35.2354018,50.362 L35.0174018,49.802 L33.4434018,54 L35.0004018,54 C35.5524018,54 36.0004018,54.448 36.0004018,55 L36.0004018,58 L40.0004018,58 L40.0004018,56 L38.0004018,56 C37.6724018,56 37.3654018,55.839 37.1784018,55.57 C36.9914018,55.3 36.9494018,54.956 37.0634018,54.649 L40.0634018,46.649 C40.2104018,46.259 40.5834018,46 41.0004018,46 C41.4174018,46 41.7904018,46.259 41.9374018,46.649 L44.8714018,54.475 C44.9654018,54.627 45.0204018,54.807 45.0204018,55 C45.0204018,55.552 44.5724018,56 44.0204018,56 L44.0004018,56 L42.0004018,56 L42.0004018,58 L53.0004018,58 C53.5524018,58 54.0004018,58.448 54.0004018,59 L54.0004018,59 Z M39.4434018,54 L42.5574018,54 L41.0004018,49.848 L39.4434018,54 L39.4434018,54 Z M15.4434018,54 L18.5574018,54 L17.0004018,49.848 L15.4434018,54 L15.4434018,54 Z M59.0004018,58 L57.0004018,58 C56.4484018,58 56.0004018,58.448 56.0004018,59 C56.0004018,59.552 56.4484018,60 57.0004018,60 L59.0004018,60 C59.5524018,60 60.0004018,59.552 60.0004018,59 C60.0004018,58.448 59.5524018,58 59.0004018,58 L59.0004018,58 Z" id="mountain" sketch:type="MSShapeGroup"></path>
        </g>
    </g>
</svg>