<?xml version="1.0" encoding="UTF-8" standalone="no"?>
<svg width="60px" height="60px" viewBox="0 0 60 60" version="1.1" xmlns="http://www.w3.org/2000/svg" xmlns:xlink="http://www.w3.org/1999/xlink" xmlns:sketch="http://www.bohemiancoding.com/sketch/ns">
    <!-- Generator: Sketch 3.4.2 (15855) - http://www.bohemiancoding.com/sketch -->
    <title>music-scene</title>
    <desc>Created with Sketch.</desc>
    <defs></defs>
    <g id="Party" stroke="none" stroke-width="1" fill="none" fill-rule="evenodd" sketch:type="MSPage">
        <g id="Icon-3" sketch:type="MSArtboardGroup" fill="#000000">
            <path d="M37,34 C37.553,34 38,33.552 38,33 C38,32.448 37.553,32 37,32 C34.243,32 32,34.243 32,37 C32,39.757 34.243,42 37,42 C39.757,42 42,39.757 42,37 L42,19 C42,18.692 41.858,18.401 41.615,18.212 C41.372,18.022 41.056,17.955 40.758,18.03 L24.757,22.03 C24.312,22.141 24,22.541 24,23 L24,41 C24,42.654 22.654,44 21,44 C19.346,44 18,42.654 18,41 C18,39.346 19.346,38 21,38 C21.552,38 22,37.552 22,37 C22,36.448 21.552,36 21,36 C18.243,36 16,38.243 16,41 C16,43.757 18.243,46 21,46 C23.757,46 26,43.757 26,41 L26,28.193 L38.255,24.967 C38.789,24.827 39.107,24.279 38.967,23.746 C38.826,23.211 38.279,22.893 37.745,23.033 L26,26.125 L26,23.781 L40,20.281 L40,37 C40,38.654 38.654,40 37,40 C35.346,40 34,38.654 34,37 C34,35.346 35.346,34 37,34 L37,34 Z M58,44 L58,37.414 L51.414,44 L58,44 Z M56.586,46 L50,46 L50,52.586 L56.586,46 Z M50,16 L50,22.586 L56.586,16 L50,16 Z M51.414,14 L58,14 L58,7.414 L51.414,14 Z M58,34 L58,27.414 L51.414,34 L58,34 Z M50,42.586 L56.586,36 L50,36 L50,42.586 Z M50,26 L50,32.586 L56.586,26 L50,26 Z M58,17.414 L51.414,24 L58,24 L58,17.414 Z M59.923,4.618 C59.974,4.74 60,4.87 60,5 L60,55 C60,55.552 59.553,56 59,56 C58.447,56 58,55.552 58,55 L58,47.414 L49.708,55.706 C49.615,55.799 49.505,55.872 49.382,55.923 C49.26,55.974 49.13,56 49,56 C48.87,56 48.74,55.974 48.618,55.923 C48.373,55.821 48.179,55.626 48.077,55.382 C48.026,55.26 48,55.13 48,55 L48,5 C48,4.448 48.447,4 49,4 C49.553,4 50,4.448 50,5 L50,12.586 L58.292,4.294 C58.385,4.201 58.495,4.128 58.618,4.077 C58.862,3.976 59.138,3.976 59.382,4.077 C59.627,4.179 59.821,4.374 59.923,4.618 L59.923,4.618 Z M2,16 L2,22.586 L8.586,16 L2,16 Z M3.414,14 L10,14 L10,7.414 L3.414,14 Z M10,44 L10,37.414 L3.414,44 L10,44 Z M8.586,46 L2,46 L2,52.586 L8.586,46 Z M2,26 L2,32.586 L8.586,26 L2,26 Z M10,17.414 L3.414,24 L10,24 L10,17.414 Z M10,34 L10,27.414 L3.414,34 L10,34 Z M2,42.586 L8.586,36 L2,36 L2,42.586 Z M0.077,55.382 C0.027,55.26 0,55.13 0,55 L0,5 C0,4.448 0.448,4 1,4 C1.552,4 2,4.448 2,5 L2,12.586 L10.292,4.293 C10.385,4.201 10.496,4.128 10.618,4.077 C10.862,3.976 11.138,3.976 11.382,4.077 C11.626,4.179 11.821,4.374 11.923,4.618 C11.974,4.74 12,4.87 12,5 L12,55 C12,55.552 11.552,56 11,56 C10.448,56 10,55.552 10,55 L10,47.414 L1.708,55.707 C1.615,55.799 1.504,55.872 1.382,55.923 C1.26,55.974 1.13,56 1,56 C0.87,56 0.74,55.974 0.618,55.923 C0.374,55.821 0.179,55.626 0.077,55.382 L0.077,55.382 Z M59,58 L1,58 C0.448,58 0,58.448 0,59 C0,59.552 0.448,60 1,60 L59,60 C59.553,60 60,59.552 60,59 C60,58.448 59.553,58 59,58 L59,58 Z M0,1 C0,0.448 0.448,0 1,0 L59,0 C59.553,0 60,0.448 60,1 C60,1.552 59.553,2 59,2 L1,2 C0.448,2 0,1.552 0,1 L0,1 Z" id="music-scene" sketch:type="MSShapeGroup"></path>
        </g>
    </g>
</svg>