<?xml version="1.0" encoding="UTF-8" standalone="no"?>
<svg width="56px" height="60px" viewBox="0 0 56 60" version="1.1" xmlns="http://www.w3.org/2000/svg" xmlns:xlink="http://www.w3.org/1999/xlink" xmlns:sketch="http://www.bohemiancoding.com/sketch/ns">
    <!-- Generator: Sketch 3.4 (15575) - http://www.bohemiancoding.com/sketch -->
    <title>notes</title>
    <desc>Created with Sketch.</desc>
    <defs></defs>
    <g id="Office" stroke="none" stroke-width="1" fill="none" fill-rule="evenodd" sketch:type="MSPage">
        <g id="Icon-3" sketch:type="MSArtboardGroup" transform="translate(-4.000000, 0.000000)" fill="#000000">
            <path d="M37,42 L23,42 C22.448,42 22,42.448 22,43 C22,43.552 22.448,44 23,44 L37,44 C37.553,44 38,43.552 38,43 C38,42.448 37.553,42 37,42 L37,42 Z M23,36 C22.448,36 22,36.448 22,37 C22,37.552 22.448,38 23,38 L43,38 C43.553,38 44,37.552 44,37 C44,36.448 43.553,36 43,36 L23,36 Z M46,31 C46,30.448 45.553,30 45,30 L23,30 C22.448,30 22,30.448 22,31 C22,31.552 22.448,32 23,32 L45,32 C45.553,32 46,31.552 46,31 L46,31 Z M23,26 L41,26 C41.553,26 42,25.552 42,25 C42,24.448 41.553,24 41,24 L23,24 C22.448,24 22,24.448 22,25 C22,25.552 22.448,26 23,26 L23,26 Z M23,20 L43,20 C43.553,20 44,19.552 44,19 C44,18.448 43.553,18 43,18 L23,18 C22.448,18 22,18.448 22,19 C22,19.552 22.448,20 23,20 L23,20 Z M17,42 L15,42 C14.448,42 14,42.448 14,43 C14,43.552 14.448,44 15,44 L17,44 C17.552,44 18,43.552 18,43 C18,42.448 17.552,42 17,42 L17,42 Z M17,36 L15,36 C14.448,36 14,36.448 14,37 C14,37.552 14.448,38 15,38 L17,38 C17.552,38 18,37.552 18,37 C18,36.448 17.552,36 17,36 L17,36 Z M17,30 L15,30 C14.448,30 14,30.448 14,31 C14,31.552 14.448,32 15,32 L17,32 C17.552,32 18,31.552 18,31 C18,30.448 17.552,30 17,30 L17,30 Z M17,24 L15,24 C14.448,24 14,24.448 14,25 C14,25.552 14.448,26 15,26 L17,26 C17.552,26 18,25.552 18,25 C18,24.448 17.552,24 17,24 L17,24 Z M17,18 L15,18 C14.448,18 14,18.448 14,19 C14,19.552 14.448,20 15,20 L17,20 C17.552,20 18,19.552 18,19 C18,18.448 17.552,18 17,18 L17,18 Z M57.395,42.605 L55.395,40.605 C54.601,39.812 53.601,39.814 52.809,40.605 L51.516,41.898 L56.102,46.484 L57.395,45.191 C58.204,44.382 58.204,43.415 57.395,42.605 L57.395,42.605 Z M44.586,58 L40,53.414 L40,58 L44.586,58 Z M51.688,44.898 L50.102,43.312 L41.414,52 L43,53.586 L51.688,44.898 Z M54.687,47.898 L53.102,46.312 L44.414,55 L46,56.586 L54.687,47.898 Z M58.809,46.605 L45.707,59.707 C45.52,59.895 45.266,60 45,60 L39,60 C38.447,60 38,59.552 38,59 L38,53 C38,52.735 38.105,52.48 38.293,52.293 L51.395,39.191 C52.931,37.657 55.271,37.654 56.809,39.191 L58.809,41.191 C60.402,42.785 60.402,45.012 58.809,46.605 L58.809,46.605 Z M35,52 C35.553,52 36,51.552 36,51 C36,50.448 35.553,50 35,50 L6,50 L6,9 C6,7.542 7.542,6 9,6 L11,6 C11.552,6 12,5.552 12,5 C12,4.448 11.552,4 11,4 L9,4 C6.43,4 4,6.43 4,9 L4,55 C4,57.57 6.43,60 9,60 L35,60 C35.553,60 36,59.552 36,59 C36,58.448 35.553,58 35,58 L9,58 C7.878,58 6.714,57.085 6.233,56 L35,56 C35.553,56 36,55.552 36,55 C36,54.448 35.553,54 35,54 L6,54 L6,52 L35,52 Z M19,6 L21,6 C21.552,6 22,5.552 22,5 C22,4.448 21.552,4 21,4 L19,4 C18.448,4 18,4.448 18,5 C18,5.552 18.448,6 19,6 L19,6 Z M29,6 L31,6 C31.553,6 32,5.552 32,5 C32,4.448 31.553,4 31,4 L29,4 C28.448,4 28,4.448 28,5 C28,5.552 28.448,6 29,6 L29,6 Z M39,6 L41,6 C41.553,6 42,5.552 42,5 C42,4.448 41.553,4 41,4 L39,4 C38.447,4 38,4.448 38,5 C38,5.552 38.447,6 39,6 L39,6 Z M14,9 C14,9.551 14.449,10 15,10 C15.551,10 16,9.551 16,9 C16,8.449 15.551,8 15,8 C14.449,8 14,8.449 14,9 L14,9 Z M14,6.184 L14,1 C14,0.448 14.448,0 15,0 C15.552,0 16,0.448 16,1 L16,6.184 C17.162,6.599 18,7.698 18,9 C18,10.654 16.654,12 15,12 C13.346,12 12,10.654 12,9 C12,7.698 12.838,6.599 14,6.184 L14,6.184 Z M44,9 C44,9.551 44.448,10 45,10 C45.552,10 46,9.551 46,9 C46,8.449 45.552,8 45,8 C44.448,8 44,8.449 44,9 L44,9 Z M44,6.184 L44,1 C44,0.448 44.447,0 45,0 C45.553,0 46,0.448 46,1 L46,6.184 C47.161,6.599 48,7.698 48,9 C48,10.654 46.654,12 45,12 C43.346,12 42,10.654 42,9 C42,7.698 42.839,6.599 44,6.184 L44,6.184 Z M34,9 C34,9.551 34.448,10 35,10 C35.552,10 36,9.551 36,9 C36,8.449 35.552,8 35,8 C34.448,8 34,8.449 34,9 L34,9 Z M34,6.184 L34,1 C34,0.448 34.447,0 35,0 C35.553,0 36,0.448 36,1 L36,6.184 C37.161,6.599 38,7.698 38,9 C38,10.654 36.654,12 35,12 C33.346,12 32,10.654 32,9 C32,7.698 32.839,6.599 34,6.184 L34,6.184 Z M24,9 C24,9.551 24.449,10 25,10 C25.551,10 26,9.551 26,9 C26,8.449 25.551,8 25,8 C24.449,8 24,8.449 24,9 L24,9 Z M24,6.184 L24,1 C24,0.448 24.448,0 25,0 C25.552,0 26,0.448 26,1 L26,6.184 C27.162,6.599 28,7.698 28,9 C28,10.654 26.654,12 25,12 C23.346,12 22,10.654 22,9 C22,7.698 22.838,6.599 24,6.184 L24,6.184 Z M48,5 C48,4.448 48.447,4 49,4 L51,4 C53.57,4 56,6.43 56,9 L56,34.917 C56,35.469 55.553,35.917 55,35.917 C54.447,35.917 54,35.469 54,34.917 L54,9 C54,7.542 52.458,6 51,6 L49,6 C48.447,6 48,5.552 48,5 L48,5 Z" id="notes" sketch:type="MSShapeGroup"></path>
        </g>
    </g>
</svg>