<?xml version="1.0" encoding="UTF-8" standalone="no"?>
<svg width="48px" height="60px" viewBox="0 0 48 60" version="1.1" xmlns="http://www.w3.org/2000/svg" xmlns:xlink="http://www.w3.org/1999/xlink" xmlns:sketch="http://www.bohemiancoding.com/sketch/ns">
    <!-- Generator: Sketch 3.4 (15575) - http://www.bohemiancoding.com/sketch -->
    <title>rocket</title>
    <desc>Created with Sketch.</desc>
    <defs></defs>
    <g id="Space" stroke="none" stroke-width="1" fill="none" fill-rule="evenodd" sketch:type="MSPage">
        <g id="Icon-1" sketch:type="MSArtboardGroup" transform="translate(-6.000000, 0.000000)" fill="#000000">
            <path d="M48,53 L48,59 C48,59.552 47.552,60 47,60 C46.448,60 46,59.552 46,59 L46,53 C46,52.448 46.448,52 47,52 C47.552,52 48,52.448 48,53 L48,53 Z M10,53 L10,55 C10,55.552 9.552,56 9,56 C8.448,56 8,55.552 8,55 L8,53 C8,52.448 8.448,52 9,52 C9.552,52 10,52.448 10,53 L10,53 Z M52,53 L52,55 C52,55.552 51.552,56 51,56 C50.448,56 50,55.552 50,55 L50,53 C50,52.448 50.448,52 51,52 C51.552,52 52,52.448 52,53 L52,53 Z M44,53 L44,57 C44,57.552 43.552,58 43,58 C42.448,58 42,57.552 42,57 L42,53 C42,52.448 42.448,52 43,52 C43.552,52 44,52.448 44,53 L44,53 Z M14,53 L14,59 C14,59.552 13.552,60 13,60 C12.448,60 12,59.552 12,59 L12,53 C12,52.448 12.448,52 13,52 C13.552,52 14,52.448 14,53 L14,53 Z M18,53 L18,57 C18,57.552 17.552,58 17,58 C16.448,58 16,57.552 16,57 L16,53 C16,52.448 16.448,52 17,52 C17.552,52 18,52.448 18,53 L18,53 Z M30,30 C30.552,30 31,30.448 31,31 L31,49 C31,49.552 30.552,50 30,50 C29.448,50 29,49.552 29,49 L29,31 C29,30.448 29.448,30 30,30 L30,30 Z M54,43 L54,49 C54,49.552 53.552,50 53,50 L41.388,50 C40.268,50.975 36.283,54 30,54 C23.717,54 19.732,50.975 18.612,50 L7,50 C6.448,50 6,49.552 6,49 L6,43 C6,40.335 9.656,38.534 12.075,37.342 L14,36.382 L14,29 C14,27.346 15.346,26 17,26 C17.552,26 18,26.448 18,27 C18,27.552 17.552,28 17,28 C16.449,28 16,28.449 16,29 L16,37 C16,37.379 15.786,37.725 15.447,37.895 L12.959,39.136 C11.35,39.929 8,41.579 8,43 L8,48 L19,48 C19.265,48 19.52,48.105 19.707,48.293 C19.743,48.328 23.532,52 30,52 C36.468,52 40.257,48.328 40.295,48.291 C40.482,48.106 40.737,48 41,48 L52,48 L52,43 C52,41.579 48.65,39.929 47.041,39.136 L44.553,37.895 C44.214,37.725 44,37.379 44,37 L44,29 C44,28.449 43.551,28 43,28 C42.448,28 42,27.552 42,27 C42,26.448 42.448,26 43,26 C44.654,26 46,27.346 46,29 L46,36.382 L47.925,37.342 C50.344,38.534 54,40.335 54,43 L54,43 Z M30,20 C28.897,20 28,19.103 28,18 C28,16.897 28.897,16 30,16 C31.103,16 32,16.897 32,18 C32,19.103 31.103,20 30,20 L30,20 Z M34,18 C34,15.794 32.206,14 30,14 C27.794,14 26,15.794 26,18 C26,20.206 27.794,22 30,22 C32.206,22 34,20.206 34,18 L34,18 Z M30,2.414 L33.159,5.573 C32.396,5.789 31.317,6 30,6 C28.687,6 27.606,5.79 26.84,5.574 L30,2.414 Z M21,46 C21.552,46 22,45.552 22,45 L22,17 C22,16.941 22.054,11.658 25.412,7.212 C26.295,7.542 27.893,8 30,8 C32.113,8 33.706,7.54 34.584,7.209 C37.93,11.644 38,16.942 38,17 L38,45 C38,45.552 38.448,46 39,46 C39.552,46 40,45.552 40,45 L40,17 C40,16.697 39.94,9.525 34.707,4.293 L30.707,0.293 C30.316,-0.098 29.684,-0.098 29.293,0.293 L25.293,4.293 C20.06,9.525 20,16.697 20,17 L20,45 C20,45.552 20.448,46 21,46 L21,46 Z" id="rocket" sketch:type="MSShapeGroup"></path>
        </g>
    </g>
</svg>