<?xml version="1.0" encoding="UTF-8" standalone="no"?>
<svg width="60px" height="60px" viewBox="0 0 60 60" version="1.1" xmlns="http://www.w3.org/2000/svg" xmlns:xlink="http://www.w3.org/1999/xlink" xmlns:sketch="http://www.bohemiancoding.com/sketch/ns">
    <!-- Generator: Sketch 3.4 (15575) - http://www.bohemiancoding.com/sketch -->
    <title>stats-pie</title>
    <desc>Created with Sketch.</desc>
    <defs></defs>
    <g id="Business" stroke="none" stroke-width="1" fill="none" fill-rule="evenodd" sketch:type="MSPage">
        <g id="Icon-10" sketch:type="MSArtboardGroup" fill="#272727">
            <path d="M46.707,10.707 L30,27.414 L30,51 C30,51.552 29.553,52 29,52 C28.447,52 28,51.552 28,51 L28,27 C28,26.735 28.105,26.48 28.293,26.293 L44.58,10.005 C40.588,6.135 35.175,2 28,2 C13.663,2 2,13.664 2,28 C2,42.093 14.364,54 29,54 C29.553,54 30,54.448 30,55 C30,55.552 29.553,56 29,56 C13.28,56 0,43.178 0,28 C0,12.56 12.56,0 28,0 C36.345,0 42.381,4.966 46.707,9.293 C47.098,9.684 47.098,10.316 46.707,10.707 L46.707,10.707 Z M59,32 C58.447,32 58,32.448 58,33 C58,46.917 47.753,57.493 34,57.982 L34,34 L55,34 C55.553,34 56,33.552 56,33 C56,32.448 55.553,32 55,32 L33,32 C32.447,32 32,32.448 32,33 L32,59 C32,59.552 32.447,60 33,60 C48.393,60 60,48.393 60,33 C60,32.448 59.553,32 59,32 L59,32 Z M32.076,29.382 C32.23,29.756 32.596,30 33,30 L59,30 C59.553,30 60,29.552 60,29 C60,20.763 57.546,14.133 52.707,9.293 C52.316,8.902 51.684,8.902 51.293,9.293 C50.902,9.684 50.902,10.316 51.293,10.707 C55.549,14.963 57.798,20.778 57.987,28 L35.416,28 L49.722,13.707 C50.112,13.316 50.112,12.684 49.722,12.292 C49.331,11.902 48.698,11.902 48.308,12.292 L32.293,28.292 C32.007,28.579 31.921,29.009 32.076,29.382 L32.076,29.382 Z" id="stats-pie" sketch:type="MSShapeGroup"></path>
        </g>
    </g>
</svg>