<?xml version="1.0" encoding="UTF-8" standalone="no"?>
<svg width="60px" height="60px" viewBox="0 0 60 60" version="1.1" xmlns="http://www.w3.org/2000/svg" xmlns:xlink="http://www.w3.org/1999/xlink" xmlns:sketch="http://www.bohemiancoding.com/sketch/ns">
    <!-- Generator: Sketch 3.4 (15575) - http://www.bohemiancoding.com/sketch -->
    <title>sun</title>
    <desc>Created with Sketch.</desc>
    <defs></defs>
    <g id="Weather" stroke="none" stroke-width="1" fill="none" fill-rule="evenodd" sketch:type="MSPage">
        <g id="Icon-2" sketch:type="MSArtboardGroup" fill="#000000">
            <path d="M40.6997,24.5596 C40.9497,25.0516 40.7547,25.6536 40.2627,25.9046 C40.1167,25.9786 39.9617,26.0136 39.8097,26.0136 C39.4457,26.0136 39.0947,25.8146 38.9177,25.4676 C38.1197,23.9016 36.9177,22.5666 35.4407,21.6066 C34.9777,21.3066 34.8457,20.6866 35.1467,20.2236 C35.4477,19.7606 36.0667,19.6296 36.5307,19.9306 C38.3007,21.0806 39.7427,22.6816 40.6997,24.5596 L40.6997,24.5596 Z M59.9247,42.3796 C59.7657,42.7666 59.3927,42.9996 58.9997,42.9996 C58.8727,42.9996 58.7437,42.9756 58.6197,42.9246 L54.5647,41.2576 C54.0537,41.0476 53.8097,40.4636 54.0197,39.9536 C54.2297,39.4426 54.8147,39.1976 55.3247,39.4086 L59.3797,41.0746 C59.8907,41.2846 60.1347,41.8686 59.9247,42.3796 L59.9247,42.3796 Z M52.1727,39.1846 C52.0127,39.5696 51.6407,39.8026 51.2487,39.8026 C51.1207,39.8026 50.9917,39.7776 50.8667,39.7256 L47.1697,38.1936 C46.6597,37.9826 46.4177,37.3976 46.6287,36.8876 C46.8407,36.3766 47.4247,36.1356 47.9357,36.3466 L51.6317,37.8776 C52.1417,38.0896 52.3847,38.6746 52.1727,39.1846 L52.1727,39.1846 Z M42.9227,58.5516 C43.1357,59.0606 42.8947,59.6466 42.3857,59.8596 C42.2597,59.9126 42.1287,59.9376 42.0007,59.9376 C41.6097,59.9376 41.2377,59.7056 41.0767,59.3226 L39.4077,55.3306 C39.1957,54.8206 39.4357,54.2346 39.9457,54.0216 C40.4547,53.8106 41.0407,54.0496 41.2537,54.5586 L42.9227,58.5516 Z M39.1847,52.1726 C39.0587,52.2246 38.9297,52.2496 38.8027,52.2496 C38.4097,52.2496 38.0377,52.0166 37.8777,51.6316 L36.3467,47.9346 C36.1357,47.4246 36.3777,46.8396 36.8877,46.6276 C37.3987,46.4156 37.9827,46.6596 38.1947,47.1686 L39.7257,50.8666 C39.9367,51.3766 39.6947,51.9616 39.1847,52.1726 L39.1847,52.1726 Z M20.5917,55.3236 L18.9247,59.3796 C18.7657,59.7666 18.3927,59.9996 17.9997,59.9996 C17.8727,59.9996 17.7437,59.9756 17.6197,59.9246 C17.1087,59.7146 16.8657,59.1306 17.0747,58.6196 L18.7417,54.5626 C18.9517,54.0526 19.5367,53.8086 20.0467,54.0186 C20.5577,54.2286 20.8017,54.8126 20.5917,55.3236 L20.5917,55.3236 Z M23.6547,47.9346 L22.1217,51.6316 C21.9627,52.0176 21.5907,52.2496 21.1977,52.2496 C21.0707,52.2496 20.9407,52.2246 20.8157,52.1726 C20.3047,51.9616 20.0627,51.3766 20.2747,50.8666 L21.8067,47.1696 C22.0177,46.6596 22.6027,46.4156 23.1137,46.6286 C23.6237,46.8396 23.8657,47.4246 23.6547,47.9346 L23.6547,47.9346 Z M5.9807,39.9506 C6.1907,40.4616 5.9467,41.0456 5.4357,41.2556 L1.3807,42.9246 C1.2557,42.9756 1.1267,42.9996 1.0007,42.9996 C0.6067,42.9996 0.2337,42.7666 0.0747,42.3796 C-0.1343,41.8696 0.1087,41.2846 0.6197,41.0746 L4.6757,39.4066 C5.1877,39.1956 5.7707,39.4406 5.9807,39.9506 L5.9807,39.9506 Z M12.8307,38.1946 L9.1337,39.7256 C9.0087,39.7766 8.8787,39.8016 8.7517,39.8016 C8.3587,39.8016 7.9867,39.5686 7.8267,39.1836 C7.6157,38.6736 7.8587,38.0886 8.3687,37.8776 L12.0657,36.3466 C12.5747,36.1356 13.1607,36.3776 13.3717,36.8886 C13.5837,37.3986 13.3407,37.9836 12.8307,38.1946 L12.8307,38.1946 Z M0.0747,17.6196 C0.2847,17.1086 0.8707,16.8636 1.3797,17.0746 L5.4367,18.7416 C5.9477,18.9516 6.1917,19.5356 5.9817,20.0466 C5.8227,20.4336 5.4497,20.6666 5.0557,20.6666 C4.9297,20.6666 4.8007,20.6426 4.6767,20.5916 L0.6197,18.9246 C0.1087,18.7146 -0.1343,18.1306 0.0747,17.6196 L0.0747,17.6196 Z M7.8267,20.8146 C8.0387,20.3056 8.6217,20.0626 9.1337,20.2736 L12.8297,21.8056 C13.3407,22.0166 13.5827,22.6016 13.3707,23.1116 C13.2117,23.4966 12.8397,23.7296 12.4467,23.7296 C12.3197,23.7296 12.1897,23.7046 12.0647,23.6526 L8.3677,22.1216 C7.8577,21.9106 7.6157,21.3256 7.8267,20.8146 L7.8267,20.8146 Z M17.0747,1.3796 C16.8657,0.8696 17.1087,0.2856 17.6197,0.0746 C18.1317,-0.1364 18.7147,0.1086 18.9247,0.6196 L20.5937,4.6746 C20.8037,5.1856 20.5597,5.7696 20.0497,5.9796 C19.9247,6.0316 19.7957,6.0556 19.6697,6.0556 C19.2757,6.0556 18.9037,5.8216 18.7437,5.4356 L17.0747,1.3796 Z M20.8157,7.8266 C21.3257,7.6156 21.9097,7.8576 22.1217,8.3676 L23.6537,12.0636 C23.8647,12.5736 23.6227,13.1586 23.1127,13.3706 C22.9877,13.4216 22.8577,13.4466 22.7297,13.4466 C22.3377,13.4466 21.9657,13.2146 21.8057,12.8296 L20.2747,9.1336 C20.0627,8.6226 20.3047,8.0386 20.8157,7.8266 L20.8157,7.8266 Z M39.4077,4.6756 L41.0747,0.6196 C41.2847,0.1086 41.8697,-0.1364 42.3797,0.0746 C42.8907,0.2846 43.1347,0.8686 42.9247,1.3796 L41.2577,5.4356 C41.0987,5.8226 40.7257,6.0566 40.3327,6.0566 C40.2057,6.0566 40.0767,6.0316 39.9527,5.9806 C39.4417,5.7706 39.1987,5.1866 39.4077,4.6756 L39.4077,4.6756 Z M36.3477,12.0646 L37.8777,8.3686 C38.0887,7.8576 38.6737,7.6156 39.1837,7.8266 C39.6947,8.0376 39.9367,8.6226 39.7257,9.1326 L38.1957,12.8296 C38.0357,13.2146 37.6637,13.4476 37.2707,13.4476 C37.1437,13.4476 37.0137,13.4226 36.8887,13.3706 C36.3787,13.1596 36.1367,12.5746 36.3477,12.0646 L36.3477,12.0646 Z M54.0197,20.0476 C53.8097,19.5376 54.0537,18.9526 54.5637,18.7426 L58.6197,17.0746 C59.1307,16.8636 59.7157,17.1086 59.9247,17.6196 C60.1347,18.1296 59.8907,18.7146 59.3807,18.9246 L55.3247,20.5926 C55.1997,20.6436 55.0717,20.6676 54.9447,20.6676 C54.5517,20.6676 54.1787,20.4346 54.0197,20.0476 L54.0197,20.0476 Z M47.1707,21.8056 L50.8667,20.2736 C51.3747,20.0626 51.9607,20.3046 52.1727,20.8146 C52.3847,21.3256 52.1417,21.9106 51.6317,22.1216 L47.9367,23.6526 C47.8117,23.7046 47.6817,23.7296 47.5537,23.7296 C47.1617,23.7296 46.7897,23.4976 46.6297,23.1116 C46.4187,22.6016 46.6607,22.0166 47.1707,21.8056 L47.1707,21.8056 Z M43.0817,16.0036 L48.0317,11.0546 C48.4217,10.6636 49.0547,10.6636 49.4457,11.0546 C49.8357,11.4446 49.8357,12.0776 49.4457,12.4686 L44.4957,17.4176 C44.3007,17.6136 44.0447,17.7106 43.7887,17.7106 C43.5327,17.7106 43.2777,17.6136 43.0817,17.4176 C42.6917,17.0276 42.6917,16.3946 43.0817,16.0036 L43.0817,16.0036 Z M17.6247,44.2886 L11.9687,49.9446 C11.7737,50.1406 11.5177,50.2376 11.2617,50.2376 C11.0057,50.2376 10.7497,50.1406 10.5547,49.9446 C10.1637,49.5546 10.1637,48.9216 10.5547,48.5306 L16.2107,42.8736 C16.6017,42.4836 17.2347,42.4836 17.6247,42.8736 C18.0157,43.2646 18.0157,43.8976 17.6247,44.2886 L17.6247,44.2886 Z M50.1527,48.5306 C50.5427,48.9216 50.5427,49.5546 50.1527,49.9446 C49.9567,50.1406 49.7007,50.2376 49.4457,50.2376 C49.1897,50.2376 48.9337,50.1406 48.7387,49.9446 L43.0817,44.2886 C42.6917,43.8976 42.6917,43.2646 43.0817,42.8736 C43.4727,42.4836 44.1057,42.4836 44.4957,42.8736 L50.1527,48.5306 Z M10.5547,11.7616 C10.1637,11.3706 10.1637,10.7376 10.5547,10.3476 C10.9457,9.9566 11.5777,9.9566 11.9687,10.3476 L17.6247,16.0036 C18.0157,16.3946 18.0157,17.0276 17.6247,17.4176 C17.4297,17.6136 17.1737,17.7106 16.9177,17.7106 C16.6617,17.7106 16.4067,17.6136 16.2107,17.4176 L10.5547,11.7616 Z M28.9997,10.9996 L28.9997,3.9996 C28.9997,3.4476 29.4477,2.9996 29.9997,2.9996 C30.5527,2.9996 30.9997,3.4476 30.9997,3.9996 L30.9997,10.9996 C30.9997,11.5516 30.5527,11.9996 29.9997,11.9996 C29.4477,11.9996 28.9997,11.5516 28.9997,10.9996 L28.9997,10.9996 Z M30.9997,48.9996 L30.9997,56.9996 C30.9997,57.5516 30.5527,57.9996 29.9997,57.9996 C29.4477,57.9996 28.9997,57.5516 28.9997,56.9996 L28.9997,48.9996 C28.9997,48.4476 29.4477,47.9996 29.9997,47.9996 C30.5527,47.9996 30.9997,48.4476 30.9997,48.9996 L30.9997,48.9996 Z M56.9997,28.9996 C57.5527,28.9996 57.9997,29.4476 57.9997,29.9996 C57.9997,30.5516 57.5527,30.9996 56.9997,30.9996 L48.9997,30.9996 C48.4477,30.9996 47.9997,30.5516 47.9997,29.9996 C47.9997,29.4476 48.4477,28.9996 48.9997,28.9996 L56.9997,28.9996 Z M10.9997,28.9996 C11.5527,28.9996 11.9997,29.4476 11.9997,29.9996 C11.9997,30.5516 11.5527,30.9996 10.9997,30.9996 L2.9997,30.9996 C2.4477,30.9996 1.9997,30.5516 1.9997,29.9996 C1.9997,29.4476 2.4477,28.9996 2.9997,28.9996 L10.9997,28.9996 Z M29.9997,43.9996 C22.2807,43.9996 15.9997,37.7196 15.9997,29.9996 C15.9997,22.2796 22.2807,15.9996 29.9997,15.9996 C37.7197,15.9996 43.9997,22.2796 43.9997,29.9996 C43.9997,37.7196 37.7197,43.9996 29.9997,43.9996 L29.9997,43.9996 Z M29.9997,13.9996 C21.1777,13.9996 13.9997,21.1776 13.9997,29.9996 C13.9997,38.8216 21.1777,45.9996 29.9997,45.9996 C38.8227,45.9996 45.9997,38.8216 45.9997,29.9996 C45.9997,21.1776 38.8227,13.9996 29.9997,13.9996 L29.9997,13.9996 Z" id="sun" sketch:type="MSShapeGroup"></path>
        </g>
    </g>
</svg>